/* XPM */
static char *f67517f2c7564dbaa7178beb4d2668e0xNe1M16Wn2zibPwe[] = {
/* columns rows colors chars-per-pixel */
"64 64 164 2 ",
"   c #010101",
".  c #0B0D0C",
"X  c #0F1110",
"o  c #121413",
"O  c #161817",
"+  c #171918",
"@  c #1A1C1B",
"#  c #1E201F",
"$  c #1F2120",
"%  c #232524",
"&  c #2B2C2B",
"*  c #313233",
"=  c #3B3C3C",
"-  c #3E403E",
";  c #3E3E42",
":  c #3F4142",
">  c #414443",
",  c #4B4C4C",
"<  c #524C4C",
"1  c #4D514F",
"2  c #4E4F50",
"3  c #4F5154",
"4  c #565656",
"5  c #575758",
"6  c #575959",
"7  c #5A5B5B",
"8  c #605252",
"9  c #5E615E",
"0  c #5E5F61",
"q  c #5E6262",
"w  c #626464",
"e  c #666967",
"r  c #646669",
"t  c #666A6B",
"y  c #6A6C6C",
"u  c #6C716E",
"i  c #676D70",
"p  c #6A6E71",
"a  c #6D7274",
"s  c #6F7678",
"d  c #727575",
"f  c #737976",
"g  c #727679",
"h  c #757A7B",
"j  c #7A7D7D",
"k  c #854E4C",
"l  c #99504E",
"z  c #9C6463",
"x  c #9F6E6C",
"c  c #A26260",
"v  c #AF7978",
"b  c #BB7473",
"n  c #BC7A7A",
"m  c #C66866",
"M  c #E97B79",
"N  c #7D817F",
"B  c #80807F",
"V  c #777D81",
"C  c #7A7E82",
"Z  c #7C8283",
"A  c #7E8589",
"S  c #7F8889",
"D  c #818584",
"F  c #848A86",
"G  c #888887",
"H  c #81868A",
"J  c #858B8B",
"K  c #8A8D8C",
"L  c #8B918D",
"P  c #90928F",
"I  c #868D91",
"U  c #898E92",
"Y  c #8C9393",
"T  c #8F9893",
"R  c #8E9599",
"E  c #919694",
"W  c #939996",
"Q  c #91979A",
"!  c #989798",
"~  c #959B9B",
"^  c #999E9D",
"/  c #A18080",
"(  c #9BA19E",
")  c #959CA1",
"_  c #9A9FA2",
"`  c #979EA8",
"'  c #989FA9",
"]  c #97A1A3",
"[  c #9DA3A3",
"{  c #9DA5AA",
"}  c #A1A6A5",
"|  c #A2A9A6",
" . c #A1A6AA",
".. c #A5ABAB",
"X. c #A9AEAD",
"o. c #AAB1AE",
"O. c #A4A6B2",
"+. c #A6ADB2",
"@. c #AAAEB2",
"#. c #ADAEB9",
"$. c #A7B0B3",
"%. c #ACB2B3",
"&. c #ADB5BA",
"*. c #AFB9BC",
"=. c #B2B5B5",
"-. c #B6B9B7",
";. c #B2B6BA",
":. c #B3B9BD",
">. c #BABBBC",
",. c #DF8D8E",
"<. c #E88F90",
"1. c #ED9998",
"2. c #F29A9B",
"3. c #F3A2A5",
"4. c #F4B6B9",
"5. c #B5BCC2",
"6. c #B9BEC3",
"7. c #F5BFC1",
"8. c #B7C0C5",
"9. c #BBC1C6",
"0. c #BDC5CA",
"q. c #BFC9CE",
"w. c #C3C4C4",
"e. c #CEC2C4",
"r. c #C2C7CB",
"t. c #C1C9CE",
"y. c #CCCCCC",
"u. c #C4CDD2",
"i. c #CACED4",
"p. c #C7D1D6",
"a. c #C9D1D6",
"s. c #CBD4DA",
"d. c #CDD5DC",
"f. c #CFD8DE",
"g. c #D1D2D1",
"h. c #D1D6DB",
"j. c #D1D9DE",
"k. c #D1D9DF",
"l. c #DADBDB",
"z. c #F6C1C0",
"x. c #D2DCE1",
"c. c #D3DCE2",
"v. c #D4DCE2",
"b. c #D5DDE3",
"n. c #D6DEE5",
"m. c #D9DEE4",
"M. c #D9DFE8",
"N. c #D7E1E6",
"B. c #DAE1E7",
"V. c #DAE2E9",
"C. c #DBE4EA",
"Z. c #DEE6ED",
"A. c #E2E3E3",
"S. c #E2E6EC",
"D. c #E0E8EE",
"F. c #EBEBEB",
"G. c #FBE6E6",
"H. c #E4EBF2",
"J. c #EBEFF6",
"K. c #EFF0F0",
"L. c #F3F4F4",
"P. c #FDF5F6",
"I. c #F0F1F8",
"U. c #FEFEFE",
/* pixels */
"5 C { +. .) ) ' ' { { ` C 5 4 4 4 4 4 5 4 4 4 4 4 4 4 4 4 5 5 4 4 4 4 4 4 4 4 4 4 4 4 4 4 4 4 4 4 4 7 H ) R R ) ) { ' { { R a 5 ",
"j &.c.H.V.k.B.c.d.f.s.u.+.h 5 4 4 4 g U Y U I H h 7 4 4 t U I U I I I t 4 4 0 V Z C V V H f 4 4 4 5 C 5.a.u.t.t.0.u.p.f.c.u.{ d ",
"{ s.N.D.C.V.D.Z.n.n.c.s.u.+.g 5 4 w { c.c.n.d.d.&.a 4 5 U d.c.c.s.s.u.H 5 4 h 9.s.d.d.d.b._ 7 4 5 C 5.c.d.s.k.d.p.a.s.a.f.f.u.Q ",
"..B.H.Z.V.t.r.u.u.t.t.f.d.p.] t 4 h 0.V.V.b.c.V.s.I 7 t 6.H.V.c.k.b.V...q q _ s.c.n.C.B.B.6.p 4 g &.V.B.n.0.0.9.5.%.5.s.s.d.s.R ",
" .V.H.n.5.J ~  ...{ ~ 0.f.p.0.R t Q s.c.5.~ [ u.n.&.i H B.H.%.J K :.V.u.a g t.C.u.{ { t.n.d.J p +.b.n.m.;.Y Q R U J D 5.f.k.s.U ",
"_ k.Z.d.] ~ %.5.9.:.+.[ u.s.q.q.] 8.p.u.Z a a  .n.k.+.&.V.s.Y ~ Q Q b.c.) ) c.V.Q s a U d.s.5.{ d.c.V.0.Y { +.$...{ I { n.n.s.U ",
"_ s.c.f...] &.5.0.9.6...~ u.u.u.u.t.u.] Z I I Y b.B.V.V.C.%.Q ....Y :.c.u.u.f.0.H Y Y h ..s.u.s.d.c.i.~ ] %.&.:.:.+.Q +.N.n.a.J ",
"Q a.d.d.+.] &.:.5.6.6.%.R R t.u.q.q.%.h H R R H :.n.V.Z.c.Q ] ..{ Q Y u.p.p.d.{ S Q Q H h 5.u.u.s.t.Q [ %.&.:.:.&...R +.V.Z.a.J ",
"Y p.p.s.%.R ..%.&.:.:.+.) J R ..R Y a g S J Y H U s.c.n.+.R ] ] ) R S [ u.u.0.A H Q Y H g g ) _ ..Y Y ..%.&.&.&.$.) S $.B.D.a.J ",
"Y u.s.s.u.{ Q { &.&.%.+.] Y g q 6 7 y h V j A Z s g g C J ) ) ~ R Y J h s p a s Z A j g a r 7 5 q g Y { ..+.%.+.] R +.u.c.C.a.J ",
"D :.s.d.d.s.5._ ..+...{ J J Y Y L L Y W E E ( E a p a Z U Q R Y Y H H Z g a i a W ( W ( [ ( W Q Y J F Y ) { { ~ R &.s.f.c.c.:.j ",
"7 j %.u.d.s.d.t.) R ) I F ( [ ( W W ~ ~ ~ ~ [ X.E j C Z Z A Z Z Z Z Z Z Z C j ~ X.....X.%...( ( ( [ ( F Y Q Y Q 0.u.u.d.u.} f 5 ",
"4 4 y ~ 5.u.s.n.s.) V h W } [ ( ~ ~ ^ Q E E [ %.%.X.X.X.( ( [ [ [ [ [ [ X.@.@.o.| | o.o.%.o.( ( [ [ ..Y Z H ] u.s.p.u.5.Y t 4 4 ",
"4 4 4 w D &.a.s.p.u.h a ( [ [ ~ W Y L L Y Y [ ....%.%.%.o.X.....| ..X...%.%.%.%.X.} ..X.o.[ ~ [ ( ^ | ~ y S a.a.u.0...Z 7 4 4 4 ",
"4 4 4 4 7 Z 5.d.u.u.p t W ~ ~ Y J J F j Z F ~ | ..| X.o.X...X.%.=.%.| | X.X...%.%...} ^ ~ W Y Q L L [ [ q C a.p.u.+.h 5 4 4 4 4 ",
"4 4 5 t U &.u.s.s.u.r t Y E ^ E L F F j D Z K [ [ [ ....| | ..%.-...} } [ ..} X.;.} ~ [ [ ^ W ^ E J ^ ( 7 g a.a.s.0.+.H r 5 4 4 ",
"5 p U 5.n.C.n.b.s.9.r y E ^ ( W Y F N Z Z D J K ^ [ [ [ [ } | o.o.( [ | [ } ( ( [ %.X...} ~ ~ ~ ~ E ^ ~ q f s.c.k.u.s.b.;.H w 5 ",
"U &.u.c.c.n.C.s.+.Z t h [ X.} E Y J F N j F L J L ^ ^ ( ( [ | o.o.[ [ [ | | ~ L ^ ..=.%.| ~ ~ ^ _ [ ..^ a d U :.d.s.a.c.V.k.&.H ",
"%.p.u.p.d.u.@.U Z H D F { ..^ Y K Y E F D J L Y L L ~ ( | [ [ ..o.[ [ ( ^ ~ F K } o.%.o.X.}  .....@.%.[ Z U J H E %.u.c.c.N.n.{ ",
"@.p.u.s.+.Z I Q ~ ~ Y F ~ ^ ~ ~ K J F J Z D K Y K D L ( o.o.o...[ ( ~ W Y F D L ( } | | | [ ..@.....} ~ F R ~ _ Q S Z :.f.f.d._ ",
"X.s.d.s.H j Y ~ _ ~ Y Z ~ ( W L F F J Z a > = u J F F ( | ..| ( W W W W L Z J K t = 7 W | ..X.;.....X.E Z J Q Q Q Y s Q n.c.s.Y ",
"..k.c.s.{ H H J I U F D ( [ W F F J K d %     @ u L L Y | [ [ [ W E W E F F F 9 o     > ^ | ..%.@.%.=.[ C H I I H H J &.c.V.c.J ",
"{ b.c.s.f.s.0.+.R V p N ~ ( ~ L Y L J ,         & j J J ( [ | | [ ~ Y K F K u @       . u | ..%.X.X.%.[ g g H ) &.0.s.n.n.c.u.F ",
"f } 0.k.k.c.n.d.t.:.Q d Y E E Y Y ~ J %       % ; w j K Y E [ [ [ E J K K h 7 ; %       - } ....[ ^ ^ E y ] t.f.d.u.s.N.c.5.E y ",
"4 7 j [ 0.b.V.n.s.9.@.h Y W Y K L ~ N o   . 3 O.u.:.F F Y Y Y Q Q J K Y K F 6.u.O.3 .   % ~ } [ ~ ~ ^ E a 5.u.a.a.u.s.9.Q d 7 4 ",
"4 4 4 7 y Q u.V.s.0.+.j E W L K K Y d o   * #.I.U.U.h.U E W ^ [ ^ E L Y E l.U.U.J.#.*   # K ( | [ ~ W Y h 5.0.u.s.5.Y y 5 4 4 4 ",
"4 4 4 7 g ) u.V.f.u.+.u E W Y L L K F t * 4 h.U.G.4.3.v W ^ E ^ ~ W E K b 2.7.P.U.i.4 > Z ~ ~ } ( ^ ~ E f :.8.p.k.0.Q p 7 4 4 4 ",
"4 q h { u.c.b.V.N.t.Y u E W Y E E Y L Y J a 6.P.2.,.n c E ~ ~ ....} ( G z b <.z.U.;.j ~ | ( ~ W W ( ^ W y _ t.s.f.c.s.0.) a 7 4 ",
"a ) 0.n.c.V.B.s.@.Z w f W W E E W E E Y W L L e.M z 2 w W [ ( ..| ..[ Y 4 < m 1.y.E ~ [ [ ( W R W ( ~ W u a U %.u.b.d.k.c.6.R t ",
"F u.n.a.s.t...U H A g N W W W E E Y L L W W Y K x k 7 Y } } [ ( [ ( Y K j 8 l / Q [ [ [ ( Y T W W ( ( ~ h I Y J Y  .8.s.c.N.t.j ",
"J u.k.d.] J R Q ) Q H Z ( [ ( W L L J D F L ~ ^ [ ~ [ | %.o.} ( ..| ~ Y E Q U Y E [ } E F F F L W ( [ ( Z Q { { ) Y Z @.Z.Z.u.Z ",
"J t.d.n.) Q { { { Q H F ( | ( L L W ( Y Z F _ | | [ [ ..o.%.| [ X.} ~ Q E ^ ~ U E ~ E E W ^ E L L ~ ( ( Z ~  .....] J ..Z.C.s.Z ",
"J a.c.V._ R { ..) Y H F ^ ( E E ( l.L.A.} L ~ [ [ } } ..X.| ( ( [ ~ ^ ^ ^ [ Q R ~ ^ K X.F.L.g.( J Y | ( Z ) { ....) H  .V.n.u.D ",
"U k.C.Z.%.U ) _ ~ Y A F [ [ L W g.U.U.U.w...>.| [ [ [ | | } ( [ ( ^ ^ [ ^ ~ R E [ w...w.U.U.U.y.~ L | ( Z ~ { { ) Y A +.n.n.t.Z ",
"Y k.H.H.C.s.&.Q S Z C D } ( W ^ L.U.U.U.w.r.U.A.w...~ ^ ( ( ~ W W Y Q E E ~ X.w.A.U.w.w.U.U.U.L.} Y ^ ( Z U R Y Q &.0.s.n.C.u.D ",
"d _ r.S.B.c.V.s.%.U t j | E K w y.L.U.U.w.w.U.U.U.F.E -.o.} ~ L L ~ ( ..-.E F.U.U.U.w.w.U.U.L.y.d K E [ d g ~ 5.s.c.s.c.b.9.~ e ",
"4 7 f ^ 6.d.n.c.k.i.~ d [ Y h + % 1 D -.! -.U.U.U.P._ P.P.L.F.>.>.F.L.U.L._ U.U.U.U.-.^ -.j , % % D Y ^ a ..a.s.s.d.t.6.Y y 5 4 ",
"4 4 4 5 y Q t.b.d.u.%.j ~ L w o O @ o + @ = w N ^ X.f y.A.F.L.>.w.L.F.A.y.f X.^ N e = % + o o o + d K W d :.a.p.s.6.Y e 5 4 4 4 ",
"4 4 4 0 g ) u.n.p.9.X.h E K 1 . O # @ + o o o O + @ @ & * = > = = = * & % @ @ o o @ # @ + O + o o q F L d &.t.a.c.u.) a 7 4 4 4 ",
"4 w C { u.b.c.d.u.6...d K D > X + @ # @ + o + # $ @ + o o o . . o . . . o O o X + % % @ + + + + . 4 Z J h :.0.s.n.c.d.0._ g 7 4 ",
"h { 0.c.b.m.b.k.t...J u F Z : o O @ @ + O o + % * = & , 7 r d q w d r 5 , & * % $ # + + o o o o . 3 Z F y Y :.k.C.c.c.Z.Z.0.) g ",
"~ c.n.n.b.a.:.{ H a t a J Z > . . + * 5 : h X.w.l.l.U L.U.U.U.y.y.U.U.U.K.K l.l.w.X.j ; 5 * o . . 5 D L a a Z Y +.0.s.Z.D.N.u.Y ",
"[ V.V.n. .Z H U U J Z f L D 4 = D >.A.P.G l.U.U.U.L.^ L.F.A.l.=.=.l.A.F.L.^ L.U.U.U.l.K P.A.>.D = e K ~ g A Y Q Y H A ;.Z.C.i.Y ",
"@.Z.V.B.U j R Q Q R Z j Y J d =.U.U.U.U.E l.U.U.K.a.Y X.} W E W Y E ~ ^ ..K g.L.U.U.l.E U.U.U.U.-.D Y ~ h I Q ] ) Y s Q c.n.n._ ",
"@.n.k.b.5.H S Y U I Z j Y F J w.U.U.U.U.E g.l.-.^ ^ ^ [ ^ W ^ ( E ~ } ~ ~ ^ } ..9.A.i.E U.U.U.U.9.J L E j U Q ) Y Z H &.d.k.B...",
"%.b.n.c.b.s.:.Q Z V h N W L K } F.U.P.A.U Y W ( [ } | X.X.} } ....| ..Q ~ ..X.^ ~ ..^ K F.P.U.A.[ F W [ j H H H ) :.u.s.d.b.b...",
"F =.b.V.Z.V.V.n.9.Y t N W W L W [ %...~ Y Y ( o.%.X...X.o.=.X.%.%...} ~ K [ ..} @.%.} ~ ~ ..%.[ W K X.o.j g ) 0.f.s.u.k.C.s.X.Z ",
"5 e K ;.k.B.b.C.c.u.w d ( ( ( E E L K L Y ~ | %.X.%.X.[ [ [ [ X.X.} ( ~ E } ..X.;.=._ E L Y W W E ^ %.X.t h s.s.s.u.a.a.@.D e 4 ",
"4 4 4 e Z ..a.V.b.u.t y ^ [ | } ^ E W ^ ^ ~ ..%...%...^ ( ~ ~ ~ ^ ~ [ [ } ..} [ =.:.%...^ Y F Y [ ..%.} q h u.a.s.9.[ j w 4 4 4 ",
"4 4 4 4 7 Z 9.V.V.b.g a [ ..X.%.X.} ..[ [ ( | ..| ..[ [ [ [ [ ~ R Q ( [ } ..( [ %.=.%.X.[ [ ~  .%.;.%.[ t Z s.s.u.&.Z 5 4 4 4 4 ",
"4 4 4 w I 6.b.B.V.k.H j [ ..%.%.X.X.X.} ( [ [ [ ( ..| ......| ^ W E ^ ( ( [ ^ ( ..%.X.| [ [  ...%.:.=.[ d H u.f.s.u.&.A q 4 4 4 ",
"4 5 a ) 0.s.k.m.i.} ^ K ~ | ..o...[ ( ^ ~ ~ ( ~ Y K K L E L K G D F F F F F F W ( | [ ( ~ ~ } @.%.=...W J J Q t.f.s.u.5.Y t 4 4 ",
"7 C +.q.u.s.c.0.{ +.:.} K [ X...[ ( ( E E ~ ( W h t d j D F D j h j j h a a e f E ( [ ( ~ ^ ..%.@.%.[ Y [ { R R 0.b.s.p.0.{ g 7 ",
"K 0.f.p.s.d.%.[ +.&.6.;.[ E E P K K F D G L E D d s g Z Y Q ~ Q Y J J H h d a a N L K F K K K Y E E E  .%.&.$.] Q %.s.s.f.s.&.H ",
" .c.c.s.u. .{ &.8.:.9.6.@._ D y q w y d Z F K K Z J I Y U Q { { { ~ Y U Q Q I g Z F F j d y w t d Y X.%.&.:.:.&.+.Q [ a.c.f.t.Y ",
"{ d.f.f..._ 5.0.0.0.t.:.| Y  .9.6.5.H j Y ~ ~ Y ~ b.c.M.+.U { .. .] U :.C.Z.m.J H Y R U j U 0.u.u. .Q +.;.9.0.8.*...Y +.f.d.0.Y ",
"[ d.k.f.+.+.9.t.t.0.0.:._ ..k.k.f.k.0.Z Y ] [ U 9.k.u.u.0.Y )  .{ Q ~ b.Z.D.D.;.J Q Q J J i.c.b.c.s.] ] &.9.0.5.*.%.) +.k.s.q.Y ",
"[ d.N.n.....5.0.u.5.5.%...k.c.b.s.k.b.+.H ) R Q f.s.0.0.s.+.Y ] ] Y 6.N.b.n.C.m.Q Y Q H 5.b.c.c.b.f.s.] ..&.5.:.:.&.] +.f.s.0.Y ",
"[ n.H.C...{ %.:.:.%.+.+.c.V.C.k.| a.B.d.Y Z j &.Z.s.~ X.f.u.U U I Q k.n.+.+.Z.J.%.Z V Q b.n.r...c.B.V.a.] { &.%.%.+.Q +.d.p.t.~ ",
"{ n.H.V.9.R ~ ] ] Q Y t.V.Z.b. .d [ n.n.s.5.6.d.V.:.d D a.N.;.Y Y :.B.s.C h i.H.b.6.&.t.c.s.Q d ..b.n.V.0.Y Q Q Q R I 8.s.d.s._ ",
"..Z.H.c.k.u.0.a.u.q.t.c.n.c.X.y 4 j r.V.C.V.C.V.s.Q 7 t >.D.B.n.b.n.C.@.w 7 { b.C.C.c.d.c.5.f 4 d ;.c.b.b.i.u.u.t.6.8.u.s.k.m._ ",
"..n.V.f.c.V.N.V.V.N.V.N.s.X.d 4 4 w @.S.k.s.k.s.%.d 4 5 ~ m.k.h.h.h.a.F 4 4 j w.s.a.u.u.u.~ 7 4 5 j ;.s.k.b.B.k.b.f.a.s.s.d.u.~ ",
"j =.s.s.k.m.b.c.k.c.n.V.6.h 4 4 4 4 j K G K K G f 5 4 4 y E K K K K K e 4 4 8 B G D D G G d 4 4 4 5 D >.s.k.k.s.a.p.u.k.B.a. .d ",
"4 j ^ ^ ^ W ^ ^ ^ ( } ..D 5 4 4 4 4 4 4 4 4 4 4 4 4 4 4 4 4 4 4 4 4 4 4 4 4 4 4 4 4 4 4 4 4 4 4 4 4 5 G ^ ^ ^ [ } ( } } } ^ a 4 "
};
